<svg width="130" height="36" viewBox="0 0 111 24" fill="none" xmlns="http://www.w3.org/2000/svg">
<path d="M14.5656 0H111V24H14.5656L0 12L14.5656 0Z" fill="#D23737"/>
<path d="M3.80139 12L16.9534 1.5H107.5V22.5H16.9534L3.80139 12Z" fill="#D23737" stroke="white"/>
<path d="M29.626 14.22H30.276C31.7667 14.22 32.512 13.726 32.512 12.738C32.512 12.1053 32.2563 11.6763 31.745 11.451C31.407 11.3037 30.8697 11.23 30.133 11.23H29.626V14.22ZM29.652 9.891H30.367C31.615 9.891 32.239 9.423 32.239 8.487C32.239 7.67233 31.6887 7.265 30.588 7.265H29.652V9.891ZM28.235 5.939H30.588C32.6073 5.939 33.617 6.75367 33.617 8.383C33.617 9.46633 33.0883 10.1727 32.031 10.502C32.603 10.6667 33.0537 10.944 33.383 11.334C33.7297 11.7327 33.903 12.205 33.903 12.751C33.903 14.623 32.6853 15.559 30.25 15.559H28.235V5.939ZM38.8748 9.579C38.2855 9.579 37.8175 9.813 37.4708 10.281C37.1415 10.7403 36.9768 11.334 36.9768 12.062C36.9768 12.79 37.1415 13.3837 37.4708 13.843C37.8175 14.311 38.2855 14.545 38.8748 14.545C39.4641 14.545 39.9278 14.311 40.2658 13.843C40.6038 13.3923 40.7728 12.7987 40.7728 12.062C40.7728 11.334 40.6038 10.7403 40.2658 10.281C39.9278 9.813 39.4641 9.579 38.8748 9.579ZM38.8748 8.357C39.9495 8.357 40.7858 8.74267 41.3838 9.514C41.9211 10.1987 42.1898 11.048 42.1898 12.062C42.1898 13.076 41.9211 13.9253 41.3838 14.61C40.7858 15.3813 39.9495 15.767 38.8748 15.767C37.7915 15.767 36.9508 15.3813 36.3528 14.61C35.8241 13.9427 35.5598 13.0933 35.5598 12.062C35.5598 11.0307 35.8241 10.1813 36.3528 9.514C36.9508 8.74267 37.7915 8.357 38.8748 8.357ZM46.7586 9.579C46.1692 9.579 45.7012 9.813 45.3546 10.281C45.0252 10.7403 44.8606 11.334 44.8606 12.062C44.8606 12.79 45.0252 13.3837 45.3546 13.843C45.7012 14.311 46.1692 14.545 46.7586 14.545C47.3479 14.545 47.8116 14.311 48.1496 13.843C48.4876 13.3923 48.6566 12.7987 48.6566 12.062C48.6566 11.334 48.4876 10.7403 48.1496 10.281C47.8116 9.813 47.3479 9.579 46.7586 9.579ZM46.7586 8.357C47.8332 8.357 48.6696 8.74267 49.2676 9.514C49.8049 10.1987 50.0736 11.048 50.0736 12.062C50.0736 13.076 49.8049 13.9253 49.2676 14.61C48.6696 15.3813 47.8332 15.767 46.7586 15.767C45.6752 15.767 44.8346 15.3813 44.2366 14.61C43.7079 13.9427 43.4436 13.0933 43.4436 12.062C43.4436 11.0307 43.7079 10.1813 44.2366 9.514C44.8346 8.74267 45.6752 8.357 46.7586 8.357ZM57.8014 15.559H55.9814L53.1734 12.556V15.559H51.7824V5.211H53.1734V10.723L55.6824 8.357H57.4764L54.0444 11.594L57.8014 15.559ZM68.649 15.559H67.297V10.983C67.297 10.0643 66.8896 9.605 66.075 9.605C65.6763 9.605 65.347 9.76967 65.087 10.099C64.775 10.4803 64.619 11.0177 64.619 11.711V15.559H63.254V10.983C63.254 10.0643 62.8466 9.605 62.032 9.605C61.6246 9.605 61.2996 9.76533 61.057 10.086C60.7536 10.4673 60.602 11.009 60.602 11.711V15.559H59.224V10.32C59.224 9.92133 59.2196 9.57467 59.211 9.28C59.2023 8.98533 59.1893 8.73833 59.172 8.539H60.524V9.176C60.914 8.64733 61.525 8.383 62.357 8.383C62.7123 8.383 63.0676 8.487 63.423 8.695C63.787 8.92033 64.0426 9.202 64.19 9.54C64.6753 8.76867 65.399 8.383 66.361 8.383C67.0976 8.383 67.6696 8.604 68.077 9.046C68.4583 9.45333 68.649 10.0123 68.649 10.723V15.559ZM74.6706 15.624V14.935C74.2459 15.4897 73.6349 15.767 72.8376 15.767C71.9709 15.767 71.3296 15.5243 70.9136 15.039C70.6189 14.6837 70.4716 14.2503 70.4716 13.739C70.4716 11.971 71.7716 11.087 74.3716 11.087H74.5666V10.853C74.5666 10.0037 74.1723 9.579 73.3836 9.579C72.6729 9.579 71.9709 9.76533 71.2776 10.138V8.864C71.9363 8.526 72.6643 8.357 73.4616 8.357C74.2936 8.357 74.9003 8.552 75.2816 8.942C75.6889 9.36667 75.8926 10.0253 75.8926 10.918V13.947C75.8926 14.7443 75.9186 15.3033 75.9706 15.624H74.6706ZM74.5666 12.296H74.2936C73.6176 12.296 73.0976 12.3567 72.7336 12.478C72.1529 12.6687 71.8626 13.0457 71.8626 13.609C71.8626 14.233 72.2223 14.545 72.9416 14.545C74.0249 14.545 74.5666 13.8863 74.5666 12.569V12.296ZM81.3776 9.8C81.2649 9.78267 81.1609 9.76967 81.0656 9.761C80.9702 9.74367 80.8749 9.735 80.7796 9.735C80.2769 9.735 79.9042 9.982 79.6616 10.476C79.4362 10.9093 79.3236 11.4467 79.3236 12.088V15.611H77.9326V10.255C77.9326 9.92567 77.9239 9.618 77.9066 9.332C77.8979 9.03733 77.8849 8.76433 77.8676 8.513H79.2716V9.384C79.6702 8.69933 80.1772 8.357 80.7926 8.357C80.9832 8.357 81.1782 8.383 81.3776 8.435V9.8ZM88.7652 15.559H86.9452L84.1372 12.556V15.559H82.7462V5.211H84.1372V10.723L86.6462 8.357H88.4402L85.0082 11.594L88.7652 15.559Z" fill="white"/>
</svg>
