<svg width="40" height="40" viewBox="0 0 50 50" fill="none" xmlns="http://www.w3.org/2000/svg">
<rect width="50" height="50" rx="25" transform="matrix(-1 0 0 1 50 0)" fill="white"/>
<path d="M8.85563 23.2854C7.5617 24.0623 7.5617 25.9377 8.85563 26.7147L21.7204 34.4393C23.0535 35.2397 24.75 34.2795 24.75 32.7246L24.75 17.2754C24.75 15.7205 23.0535 14.7603 21.7204 15.5607L8.85563 23.2854Z" fill="black"/>
<path d="M21.8556 23.2854C20.5617 24.0623 20.5617 25.9377 21.8556 26.7147L34.7204 34.4393C36.0535 35.2397 37.75 34.2795 37.75 32.7246L37.75 17.2754C37.75 15.7205 36.0535 14.7603 34.7204 15.5607L21.8556 23.2854Z" fill="black"/>
</svg>
